<?xml version="1.0" encoding="utf-8" standalone="no"?>
<!DOCTYPE svg PUBLIC "-//W3C//DTD SVG 1.1//EN"
  "http://www.w3.org/Graphics/SVG/1.1/DTD/svg11.dtd">
<svg xmlns:xlink="http://www.w3.org/1999/xlink" width="432pt" height="288pt" viewBox="0 0 432 288" xmlns="http://www.w3.org/2000/svg" version="1.1">
 <metadata>
  <rdf:RDF xmlns:dc="http://purl.org/dc/elements/1.1/" xmlns:cc="http://creativecommons.org/ns#" xmlns:rdf="http://www.w3.org/1999/02/22-rdf-syntax-ns#">
   <cc:Work>
    <dc:type rdf:resource="http://purl.org/dc/dcmitype/StillImage"/>
    <dc:date>2024-05-25T09:28:55.662557</dc:date>
    <dc:format>image/svg+xml</dc:format>
    <dc:creator>
     <cc:Agent>
      <dc:title>Matplotlib v3.7.2, https://matplotlib.org/</dc:title>
     </cc:Agent>
    </dc:creator>
   </cc:Work>
  </rdf:RDF>
 </metadata>
 <defs>
  <style type="text/css">*{stroke-linejoin: round; stroke-linecap: butt}</style>
 </defs>
 <g id="figure_1">
  <g id="patch_1">
   <path d="M 0 288 
L 432 288 
L 432 0 
L 0 0 
z
" style="fill: #ffffff"/>
  </g>
  <g id="axes_1">
   <g id="patch_2">
    <path d="M 54 252 
L 388.8 252 
L 388.8 34.56 
L 54 34.56 
z
" style="fill: #ffffff"/>
   </g>
   <g id="PolyCollection_1">
    <defs>
     <path id="mbe4079d52b" d="M 69.218182 -233.790351 
L 69.218182 -95.803085 
L 71.672727 -98.531513 
L 74.127273 -101.000623 
L 76.581818 -100.606062 
L 79.036364 -100.508042 
L 81.490909 -99.323117 
L 83.945455 -99.155615 
L 86.4 -100.402578 
L 88.854545 -100.458412 
L 91.309091 -102.66324 
L 93.763636 -104.169521 
L 96.218182 -106.154735 
L 98.672727 -104.750196 
L 101.127273 -101.638373 
L 103.581818 -100.375281 
L 106.036364 -99.038984 
L 108.490909 -95.999125 
L 110.945455 -95.798122 
L 113.4 -95.590915 
L 115.854545 -95.760899 
L 118.309091 -95.92592 
L 120.763636 -95.964383 
L 123.218182 -96.136849 
L 125.672727 -94.954406 
L 128.127273 -93.17888 
L 130.581818 -93.305437 
L 133.036364 -95.639305 
L 135.490909 -97.293236 
L 137.945455 -96.688987 
L 140.4 -96.625708 
L 142.854545 -93.593293 
L 145.309091 -89.811461 
L 147.763636 -86.357188 
L 150.218182 -82.71308 
L 152.672727 -80.416435 
L 155.127273 -77.114776 
L 157.581818 -71.588436 
L 160.036364 -65.755629 
L 162.490909 -59.456297 
L 164.945455 -53.851789 
L 167.4 -50.349127 
L 169.854545 -48.514045 
L 172.309091 -47.881258 
L 174.763636 -46.95317 
L 177.218182 -46.906022 
L 179.672727 -47.537568 
L 182.127273 -46.991634 
L 184.581818 -47.118191 
L 187.036364 -45.883636 
L 189.490909 -47.057394 
L 191.945455 -49.918584 
L 194.4 -55.689353 
L 196.854545 -58.445078 
L 199.309091 -61.347213 
L 201.763636 -64.439184 
L 204.218182 -69.364996 
L 206.672727 -75.96087 
L 209.127273 -82.724246 
L 211.581818 -88.029731 
L 214.036364 -92.233422 
L 216.490909 -95.244743 
L 218.945455 -99.712716 
L 221.4 -103.90648 
L 223.854545 -107.440161 
L 226.309091 -109.905549 
L 228.763636 -111.391978 
L 231.218182 -112.717109 
L 233.672727 -113.511194 
L 236.127273 -111.275347 
L 238.581818 -108.780181 
L 241.036364 -106.297423 
L 243.490909 -104.62488 
L 245.945455 -106.026937 
L 248.4 -107.730499 
L 250.854545 -108.443935 
L 253.309091 -108.87696 
L 255.763636 -109.584193 
L 258.218182 -109.316189 
L 260.672727 -109.796362 
L 263.127273 -109.489895 
L 265.581818 -108.854626 
L 268.036364 -110.328648 
L 270.490909 -112.452827 
L 272.945455 -113.949182 
L 275.4 -114.182445 
L 277.854545 -112.509902 
L 280.309091 -109.142482 
L 282.763636 -104.823401 
L 285.218182 -102.178103 
L 287.672727 -100.548987 
L 290.127273 -98.360289 
L 292.581818 -95.670324 
L 295.036364 -89.00869 
L 297.490909 -84.685886 
L 299.945455 -81.211761 
L 302.4 -76.776049 
L 304.854545 -73.651818 
L 307.309091 -71.216209 
L 309.763636 -69.458053 
L 312.218182 -67.864919 
L 314.672727 -67.552248 
L 317.127273 -65.220862 
L 319.581818 -60.997319 
L 322.036364 -58.096425 
L 324.490909 -56.438771 
L 326.945455 -59.285072 
L 329.4 -62.087946 
L 331.854545 -62.710807 
L 334.309091 -62.774086 
L 336.763636 -61.837313 
L 339.218182 -61.678496 
L 341.672727 -62.034594 
L 344.127273 -64.755578 
L 346.581818 -67.160168 
L 349.036364 -69.970487 
L 351.490909 -72.432152 
L 353.945455 -74.768501 
L 356.4 -77.877843 
L 358.854545 -81.158409 
L 361.309091 -85.584195 
L 363.763636 -87.686041 
L 366.218182 -90.549712 
L 368.672727 -92.204884 
L 371.127273 -92.630465 
L 373.581818 -91.761933 
L 373.581818 -205.023359 
L 373.581818 -205.023359 
L 371.127273 -205.326104 
L 368.672727 -205.362086 
L 366.218182 -206.565622 
L 363.763636 -206.989961 
L 361.309091 -207.076814 
L 358.854545 -203.395483 
L 356.4 -200.56159 
L 353.945455 -198.072628 
L 351.490909 -197.679307 
L 349.036364 -196.043987 
L 346.581818 -193.556266 
L 344.127273 -191.270788 
L 341.672727 -190.547426 
L 339.218182 -191.965613 
L 336.763636 -193.690268 
L 334.309091 -194.91986 
L 331.854545 -195.913708 
L 329.4 -197.360432 
L 326.945455 -197.113521 
L 324.490909 -197.669381 
L 322.036364 -200.657128 
L 319.581818 -203.411613 
L 317.127273 -207.878345 
L 314.672727 -209.790354 
L 312.218182 -210.785442 
L 309.763636 -211.194893 
L 307.309091 -212.12174 
L 304.854545 -212.954289 
L 302.4 -214.87002 
L 299.945455 -217.342853 
L 297.490909 -217.918565 
L 295.036364 -220.481972 
L 292.581818 -225.091391 
L 290.127273 -227.461241 
L 287.672727 -229.215674 
L 285.218182 -231.028422 
L 282.763636 -233.676201 
L 280.309091 -237.690056 
L 277.854545 -240.945807 
L 275.4 -241.881339 
L 272.945455 -241.417295 
L 270.490909 -240.089684 
L 268.036364 -237.595758 
L 265.581818 -236.459223 
L 263.127273 -236.496446 
L 260.672727 -235.415745 
L 258.218182 -234.019892 
L 255.763636 -234.16382 
L 253.309091 -232.501203 
L 250.854545 -232.254292 
L 248.4 -230.749251 
L 245.945455 -229.470029 
L 243.490909 -228.978689 
L 241.036364 -230.480007 
L 238.581818 -232.486314 
L 236.127273 -235.343781 
L 233.672727 -237.693778 
L 231.218182 -237.465479 
L 228.763636 -237.433219 
L 226.309091 -237.125511 
L 223.854545 -235.627915 
L 221.4 -234.528603 
L 218.945455 -231.997455 
L 216.490909 -230.241781 
L 214.036364 -229.577975 
L 211.581818 -227.41161 
L 209.127273 -225.426396 
L 206.672727 -220.975794 
L 204.218182 -216.102094 
L 201.763636 -212.315298 
L 199.309091 -210.541013 
L 196.854545 -208.006143 
L 194.4 -205.208232 
L 191.945455 -200.191844 
L 189.490909 -197.509323 
L 187.036364 -196.382714 
L 184.581818 -197.751271 
L 182.127273 -197.52049 
L 179.672727 -198.35428 
L 177.218182 -197.826958 
L 174.763636 -198.601191 
L 172.309091 -200.134769 
L 169.854545 -200.673258 
L 167.4 -203.247833 
L 164.945455 -206.762902 
L 162.490909 -211.196134 
L 160.036364 -216.877568 
L 157.581818 -220.747495 
L 155.127273 -225.055409 
L 152.672727 -227.220533 
L 150.218182 -228.268975 
L 147.763636 -229.997352 
L 145.309091 -232.434202 
L 142.854545 -235.114241 
L 140.4 -238.881185 
L 137.945455 -240.775823 
L 135.490909 -240.585987 
L 133.036364 -239.401062 
L 130.581818 -238.494068 
L 128.127273 -238.412178 
L 125.672727 -240.880047 
L 123.218182 -242.496756 
L 120.763636 -241.478093 
L 118.309091 -241.434666 
L 115.854545 -241.478093 
L 113.4 -240.568616 
L 110.945455 -239.401062 
L 108.490909 -237.529998 
L 106.036364 -239.29932 
L 103.581818 -240.275797 
L 101.127273 -239.978015 
L 98.672727 -241.876376 
L 96.218182 -243.556364 
L 93.763636 -243.22384 
L 91.309091 -242.447125 
L 88.854545 -241.455759 
L 86.4 -241.610854 
L 83.945455 -239.763364 
L 81.490909 -239.268301 
L 79.036364 -239.9197 
L 76.581818 -239.54375 
L 74.127273 -238.603255 
L 71.672727 -235.687471 
L 69.218182 -233.790351 
z
" style="stroke: #808080; stroke-opacity: 0.2"/>
    </defs>
    <g clip-path="url(#p08f4ed5b92)">
     <use xlink:href="#mbe4079d52b" x="0" y="288" style="fill: #808080; fill-opacity: 0.2; stroke: #808080; stroke-opacity: 0.2"/>
    </g>
   </g>
   <g id="patch_3">
    <path d="M 142.854545 252 
L 142.854545 34.56 
L 194.4 34.56 
L 194.4 252 
z
" clip-path="url(#p08f4ed5b92)" style="fill: #ffcccc; opacity: 0.5; stroke: #ffcccc; stroke-linejoin: miter"/>
   </g>
   <g id="matplotlib.axis_1">
    <g id="xtick_1">
     <g id="line2d_1">
      <defs>
       <path id="mabc35b5efc" d="M 0 0 
L 0 3.5 
" style="stroke: #000000; stroke-width: 0.8"/>
      </defs>
      <g>
       <use xlink:href="#mabc35b5efc" x="69.218182" y="252" style="stroke: #000000; stroke-width: 0.8"/>
      </g>
     </g>
     <g id="text_1">
      <!-- 0 -->
      <g transform="translate(66.036932 266.598437) scale(0.1 -0.1)">
       <defs>
        <path id="DejaVuSans-30" d="M 2034 4250 
Q 1547 4250 1301 3770 
Q 1056 3291 1056 2328 
Q 1056 1369 1301 889 
Q 1547 409 2034 409 
Q 2525 409 2770 889 
Q 3016 1369 3016 2328 
Q 3016 3291 2770 3770 
Q 2525 4250 2034 4250 
z
M 2034 4750 
Q 2819 4750 3233 4129 
Q 3647 3509 3647 2328 
Q 3647 1150 3233 529 
Q 2819 -91 2034 -91 
Q 1250 -91 836 529 
Q 422 1150 422 2328 
Q 422 3509 836 4129 
Q 1250 4750 2034 4750 
z
" transform="scale(0.015625)"/>
       </defs>
       <use xlink:href="#DejaVuSans-30"/>
      </g>
     </g>
    </g>
    <g id="xtick_2">
     <g id="line2d_2">
      <g>
       <use xlink:href="#mabc35b5efc" x="118.309091" y="252" style="stroke: #000000; stroke-width: 0.8"/>
      </g>
     </g>
     <g id="text_2">
      <!-- 20 -->
      <g transform="translate(111.946591 266.598437) scale(0.1 -0.1)">
       <defs>
        <path id="DejaVuSans-32" d="M 1228 531 
L 3431 531 
L 3431 0 
L 469 0 
L 469 531 
Q 828 903 1448 1529 
Q 2069 2156 2228 2338 
Q 2531 2678 2651 2914 
Q 2772 3150 2772 3378 
Q 2772 3750 2511 3984 
Q 2250 4219 1831 4219 
Q 1534 4219 1204 4116 
Q 875 4013 500 3803 
L 500 4441 
Q 881 4594 1212 4672 
Q 1544 4750 1819 4750 
Q 2544 4750 2975 4387 
Q 3406 4025 3406 3419 
Q 3406 3131 3298 2873 
Q 3191 2616 2906 2266 
Q 2828 2175 2409 1742 
Q 1991 1309 1228 531 
z
" transform="scale(0.015625)"/>
       </defs>
       <use xlink:href="#DejaVuSans-32"/>
       <use xlink:href="#DejaVuSans-30" x="63.623047"/>
      </g>
     </g>
    </g>
    <g id="xtick_3">
     <g id="line2d_3">
      <g>
       <use xlink:href="#mabc35b5efc" x="167.4" y="252" style="stroke: #000000; stroke-width: 0.8"/>
      </g>
     </g>
     <g id="text_3">
      <!-- 40 -->
      <g transform="translate(161.0375 266.598437) scale(0.1 -0.1)">
       <defs>
        <path id="DejaVuSans-34" d="M 2419 4116 
L 825 1625 
L 2419 1625 
L 2419 4116 
z
M 2253 4666 
L 3047 4666 
L 3047 1625 
L 3713 1625 
L 3713 1100 
L 3047 1100 
L 3047 0 
L 2419 0 
L 2419 1100 
L 313 1100 
L 313 1709 
L 2253 4666 
z
" transform="scale(0.015625)"/>
       </defs>
       <use xlink:href="#DejaVuSans-34"/>
       <use xlink:href="#DejaVuSans-30" x="63.623047"/>
      </g>
     </g>
    </g>
    <g id="xtick_4">
     <g id="line2d_4">
      <g>
       <use xlink:href="#mabc35b5efc" x="216.490909" y="252" style="stroke: #000000; stroke-width: 0.8"/>
      </g>
     </g>
     <g id="text_4">
      <!-- 60 -->
      <g transform="translate(210.128409 266.598437) scale(0.1 -0.1)">
       <defs>
        <path id="DejaVuSans-36" d="M 2113 2584 
Q 1688 2584 1439 2293 
Q 1191 2003 1191 1497 
Q 1191 994 1439 701 
Q 1688 409 2113 409 
Q 2538 409 2786 701 
Q 3034 994 3034 1497 
Q 3034 2003 2786 2293 
Q 2538 2584 2113 2584 
z
M 3366 4563 
L 3366 3988 
Q 3128 4100 2886 4159 
Q 2644 4219 2406 4219 
Q 1781 4219 1451 3797 
Q 1122 3375 1075 2522 
Q 1259 2794 1537 2939 
Q 1816 3084 2150 3084 
Q 2853 3084 3261 2657 
Q 3669 2231 3669 1497 
Q 3669 778 3244 343 
Q 2819 -91 2113 -91 
Q 1303 -91 875 529 
Q 447 1150 447 2328 
Q 447 3434 972 4092 
Q 1497 4750 2381 4750 
Q 2619 4750 2861 4703 
Q 3103 4656 3366 4563 
z
" transform="scale(0.015625)"/>
       </defs>
       <use xlink:href="#DejaVuSans-36"/>
       <use xlink:href="#DejaVuSans-30" x="63.623047"/>
      </g>
     </g>
    </g>
    <g id="xtick_5">
     <g id="line2d_5">
      <g>
       <use xlink:href="#mabc35b5efc" x="265.581818" y="252" style="stroke: #000000; stroke-width: 0.8"/>
      </g>
     </g>
     <g id="text_5">
      <!-- 80 -->
      <g transform="translate(259.219318 266.598437) scale(0.1 -0.1)">
       <defs>
        <path id="DejaVuSans-38" d="M 2034 2216 
Q 1584 2216 1326 1975 
Q 1069 1734 1069 1313 
Q 1069 891 1326 650 
Q 1584 409 2034 409 
Q 2484 409 2743 651 
Q 3003 894 3003 1313 
Q 3003 1734 2745 1975 
Q 2488 2216 2034 2216 
z
M 1403 2484 
Q 997 2584 770 2862 
Q 544 3141 544 3541 
Q 544 4100 942 4425 
Q 1341 4750 2034 4750 
Q 2731 4750 3128 4425 
Q 3525 4100 3525 3541 
Q 3525 3141 3298 2862 
Q 3072 2584 2669 2484 
Q 3125 2378 3379 2068 
Q 3634 1759 3634 1313 
Q 3634 634 3220 271 
Q 2806 -91 2034 -91 
Q 1263 -91 848 271 
Q 434 634 434 1313 
Q 434 1759 690 2068 
Q 947 2378 1403 2484 
z
M 1172 3481 
Q 1172 3119 1398 2916 
Q 1625 2713 2034 2713 
Q 2441 2713 2670 2916 
Q 2900 3119 2900 3481 
Q 2900 3844 2670 4047 
Q 2441 4250 2034 4250 
Q 1625 4250 1398 4047 
Q 1172 3844 1172 3481 
z
" transform="scale(0.015625)"/>
       </defs>
       <use xlink:href="#DejaVuSans-38"/>
       <use xlink:href="#DejaVuSans-30" x="63.623047"/>
      </g>
     </g>
    </g>
    <g id="xtick_6">
     <g id="line2d_6">
      <g>
       <use xlink:href="#mabc35b5efc" x="314.672727" y="252" style="stroke: #000000; stroke-width: 0.8"/>
      </g>
     </g>
     <g id="text_6">
      <!-- 100 -->
      <g transform="translate(305.128977 266.598437) scale(0.1 -0.1)">
       <defs>
        <path id="DejaVuSans-31" d="M 794 531 
L 1825 531 
L 1825 4091 
L 703 3866 
L 703 4441 
L 1819 4666 
L 2450 4666 
L 2450 531 
L 3481 531 
L 3481 0 
L 794 0 
L 794 531 
z
" transform="scale(0.015625)"/>
       </defs>
       <use xlink:href="#DejaVuSans-31"/>
       <use xlink:href="#DejaVuSans-30" x="63.623047"/>
       <use xlink:href="#DejaVuSans-30" x="127.246094"/>
      </g>
     </g>
    </g>
    <g id="xtick_7">
     <g id="line2d_7">
      <g>
       <use xlink:href="#mabc35b5efc" x="363.763636" y="252" style="stroke: #000000; stroke-width: 0.8"/>
      </g>
     </g>
     <g id="text_7">
      <!-- 120 -->
      <g transform="translate(354.219886 266.598437) scale(0.1 -0.1)">
       <use xlink:href="#DejaVuSans-31"/>
       <use xlink:href="#DejaVuSans-32" x="63.623047"/>
       <use xlink:href="#DejaVuSans-30" x="127.246094"/>
      </g>
     </g>
    </g>
    <g id="text_8">
     <!-- Time (Seconds) -->
     <g transform="translate(167.17625 283.315938) scale(0.14 -0.14)">
      <defs>
       <path id="DejaVuSans-54" d="M -19 4666 
L 3928 4666 
L 3928 4134 
L 2272 4134 
L 2272 0 
L 1638 0 
L 1638 4134 
L -19 4134 
L -19 4666 
z
" transform="scale(0.015625)"/>
       <path id="DejaVuSans-69" d="M 603 3500 
L 1178 3500 
L 1178 0 
L 603 0 
L 603 3500 
z
M 603 4863 
L 1178 4863 
L 1178 4134 
L 603 4134 
L 603 4863 
z
" transform="scale(0.015625)"/>
       <path id="DejaVuSans-6d" d="M 3328 2828 
Q 3544 3216 3844 3400 
Q 4144 3584 4550 3584 
Q 5097 3584 5394 3201 
Q 5691 2819 5691 2113 
L 5691 0 
L 5113 0 
L 5113 2094 
Q 5113 2597 4934 2840 
Q 4756 3084 4391 3084 
Q 3944 3084 3684 2787 
Q 3425 2491 3425 1978 
L 3425 0 
L 2847 0 
L 2847 2094 
Q 2847 2600 2669 2842 
Q 2491 3084 2119 3084 
Q 1678 3084 1418 2786 
Q 1159 2488 1159 1978 
L 1159 0 
L 581 0 
L 581 3500 
L 1159 3500 
L 1159 2956 
Q 1356 3278 1631 3431 
Q 1906 3584 2284 3584 
Q 2666 3584 2933 3390 
Q 3200 3197 3328 2828 
z
" transform="scale(0.015625)"/>
       <path id="DejaVuSans-65" d="M 3597 1894 
L 3597 1613 
L 953 1613 
Q 991 1019 1311 708 
Q 1631 397 2203 397 
Q 2534 397 2845 478 
Q 3156 559 3463 722 
L 3463 178 
Q 3153 47 2828 -22 
Q 2503 -91 2169 -91 
Q 1331 -91 842 396 
Q 353 884 353 1716 
Q 353 2575 817 3079 
Q 1281 3584 2069 3584 
Q 2775 3584 3186 3129 
Q 3597 2675 3597 1894 
z
M 3022 2063 
Q 3016 2534 2758 2815 
Q 2500 3097 2075 3097 
Q 1594 3097 1305 2825 
Q 1016 2553 972 2059 
L 3022 2063 
z
" transform="scale(0.015625)"/>
       <path id="DejaVuSans-20" transform="scale(0.015625)"/>
       <path id="DejaVuSans-28" d="M 1984 4856 
Q 1566 4138 1362 3434 
Q 1159 2731 1159 2009 
Q 1159 1288 1364 580 
Q 1569 -128 1984 -844 
L 1484 -844 
Q 1016 -109 783 600 
Q 550 1309 550 2009 
Q 550 2706 781 3412 
Q 1013 4119 1484 4856 
L 1984 4856 
z
" transform="scale(0.015625)"/>
       <path id="DejaVuSans-53" d="M 3425 4513 
L 3425 3897 
Q 3066 4069 2747 4153 
Q 2428 4238 2131 4238 
Q 1616 4238 1336 4038 
Q 1056 3838 1056 3469 
Q 1056 3159 1242 3001 
Q 1428 2844 1947 2747 
L 2328 2669 
Q 3034 2534 3370 2195 
Q 3706 1856 3706 1288 
Q 3706 609 3251 259 
Q 2797 -91 1919 -91 
Q 1588 -91 1214 -16 
Q 841 59 441 206 
L 441 856 
Q 825 641 1194 531 
Q 1563 422 1919 422 
Q 2459 422 2753 634 
Q 3047 847 3047 1241 
Q 3047 1584 2836 1778 
Q 2625 1972 2144 2069 
L 1759 2144 
Q 1053 2284 737 2584 
Q 422 2884 422 3419 
Q 422 4038 858 4394 
Q 1294 4750 2059 4750 
Q 2388 4750 2728 4690 
Q 3069 4631 3425 4513 
z
" transform="scale(0.015625)"/>
       <path id="DejaVuSans-63" d="M 3122 3366 
L 3122 2828 
Q 2878 2963 2633 3030 
Q 2388 3097 2138 3097 
Q 1578 3097 1268 2742 
Q 959 2388 959 1747 
Q 959 1106 1268 751 
Q 1578 397 2138 397 
Q 2388 397 2633 464 
Q 2878 531 3122 666 
L 3122 134 
Q 2881 22 2623 -34 
Q 2366 -91 2075 -91 
Q 1284 -91 818 406 
Q 353 903 353 1747 
Q 353 2603 823 3093 
Q 1294 3584 2113 3584 
Q 2378 3584 2631 3529 
Q 2884 3475 3122 3366 
z
" transform="scale(0.015625)"/>
       <path id="DejaVuSans-6f" d="M 1959 3097 
Q 1497 3097 1228 2736 
Q 959 2375 959 1747 
Q 959 1119 1226 758 
Q 1494 397 1959 397 
Q 2419 397 2687 759 
Q 2956 1122 2956 1747 
Q 2956 2369 2687 2733 
Q 2419 3097 1959 3097 
z
M 1959 3584 
Q 2709 3584 3137 3096 
Q 3566 2609 3566 1747 
Q 3566 888 3137 398 
Q 2709 -91 1959 -91 
Q 1206 -91 779 398 
Q 353 888 353 1747 
Q 353 2609 779 3096 
Q 1206 3584 1959 3584 
z
" transform="scale(0.015625)"/>
       <path id="DejaVuSans-6e" d="M 3513 2113 
L 3513 0 
L 2938 0 
L 2938 2094 
Q 2938 2591 2744 2837 
Q 2550 3084 2163 3084 
Q 1697 3084 1428 2787 
Q 1159 2491 1159 1978 
L 1159 0 
L 581 0 
L 581 3500 
L 1159 3500 
L 1159 2956 
Q 1366 3272 1645 3428 
Q 1925 3584 2291 3584 
Q 2894 3584 3203 3211 
Q 3513 2838 3513 2113 
z
" transform="scale(0.015625)"/>
       <path id="DejaVuSans-64" d="M 2906 2969 
L 2906 4863 
L 3481 4863 
L 3481 0 
L 2906 0 
L 2906 525 
Q 2725 213 2448 61 
Q 2172 -91 1784 -91 
Q 1150 -91 751 415 
Q 353 922 353 1747 
Q 353 2572 751 3078 
Q 1150 3584 1784 3584 
Q 2172 3584 2448 3432 
Q 2725 3281 2906 2969 
z
M 947 1747 
Q 947 1113 1208 752 
Q 1469 391 1925 391 
Q 2381 391 2643 752 
Q 2906 1113 2906 1747 
Q 2906 2381 2643 2742 
Q 2381 3103 1925 3103 
Q 1469 3103 1208 2742 
Q 947 2381 947 1747 
z
" transform="scale(0.015625)"/>
       <path id="DejaVuSans-73" d="M 2834 3397 
L 2834 2853 
Q 2591 2978 2328 3040 
Q 2066 3103 1784 3103 
Q 1356 3103 1142 2972 
Q 928 2841 928 2578 
Q 928 2378 1081 2264 
Q 1234 2150 1697 2047 
L 1894 2003 
Q 2506 1872 2764 1633 
Q 3022 1394 3022 966 
Q 3022 478 2636 193 
Q 2250 -91 1575 -91 
Q 1294 -91 989 -36 
Q 684 19 347 128 
L 347 722 
Q 666 556 975 473 
Q 1284 391 1588 391 
Q 1994 391 2212 530 
Q 2431 669 2431 922 
Q 2431 1156 2273 1281 
Q 2116 1406 1581 1522 
L 1381 1569 
Q 847 1681 609 1914 
Q 372 2147 372 2553 
Q 372 3047 722 3315 
Q 1072 3584 1716 3584 
Q 2034 3584 2315 3537 
Q 2597 3491 2834 3397 
z
" transform="scale(0.015625)"/>
       <path id="DejaVuSans-29" d="M 513 4856 
L 1013 4856 
Q 1481 4119 1714 3412 
Q 1947 2706 1947 2009 
Q 1947 1309 1714 600 
Q 1481 -109 1013 -844 
L 513 -844 
Q 928 -128 1133 580 
Q 1338 1288 1338 2009 
Q 1338 2731 1133 3434 
Q 928 4138 513 4856 
z
" transform="scale(0.015625)"/>
      </defs>
      <use xlink:href="#DejaVuSans-54"/>
      <use xlink:href="#DejaVuSans-69" x="57.958984"/>
      <use xlink:href="#DejaVuSans-6d" x="85.742188"/>
      <use xlink:href="#DejaVuSans-65" x="183.154297"/>
      <use xlink:href="#DejaVuSans-20" x="244.677734"/>
      <use xlink:href="#DejaVuSans-28" x="276.464844"/>
      <use xlink:href="#DejaVuSans-53" x="315.478516"/>
      <use xlink:href="#DejaVuSans-65" x="378.955078"/>
      <use xlink:href="#DejaVuSans-63" x="440.478516"/>
      <use xlink:href="#DejaVuSans-6f" x="495.458984"/>
      <use xlink:href="#DejaVuSans-6e" x="556.640625"/>
      <use xlink:href="#DejaVuSans-64" x="620.019531"/>
      <use xlink:href="#DejaVuSans-73" x="683.496094"/>
      <use xlink:href="#DejaVuSans-29" x="735.595703"/>
     </g>
    </g>
   </g>
   <g id="matplotlib.axis_2">
    <g id="ytick_1">
     <g id="line2d_8">
      <defs>
       <path id="mf54f059253" d="M 0 0 
L -3.5 0 
" style="stroke: #000000; stroke-width: 0.8"/>
      </defs>
      <g>
       <use xlink:href="#mf54f059253" x="54" y="219.977505" style="stroke: #000000; stroke-width: 0.8"/>
      </g>
     </g>
     <g id="text_9">
      <!-- 30.00 -->
      <g transform="translate(18.371875 223.776723) scale(0.1 -0.1)">
       <defs>
        <path id="DejaVuSans-33" d="M 2597 2516 
Q 3050 2419 3304 2112 
Q 3559 1806 3559 1356 
Q 3559 666 3084 287 
Q 2609 -91 1734 -91 
Q 1441 -91 1130 -33 
Q 819 25 488 141 
L 488 750 
Q 750 597 1062 519 
Q 1375 441 1716 441 
Q 2309 441 2620 675 
Q 2931 909 2931 1356 
Q 2931 1769 2642 2001 
Q 2353 2234 1838 2234 
L 1294 2234 
L 1294 2753 
L 1863 2753 
Q 2328 2753 2575 2939 
Q 2822 3125 2822 3475 
Q 2822 3834 2567 4026 
Q 2313 4219 1838 4219 
Q 1578 4219 1281 4162 
Q 984 4106 628 3988 
L 628 4550 
Q 988 4650 1302 4700 
Q 1616 4750 1894 4750 
Q 2613 4750 3031 4423 
Q 3450 4097 3450 3541 
Q 3450 3153 3228 2886 
Q 3006 2619 2597 2516 
z
" transform="scale(0.015625)"/>
        <path id="DejaVuSans-2e" d="M 684 794 
L 1344 794 
L 1344 0 
L 684 0 
L 684 794 
z
" transform="scale(0.015625)"/>
       </defs>
       <use xlink:href="#DejaVuSans-33"/>
       <use xlink:href="#DejaVuSans-30" x="63.623047"/>
       <use xlink:href="#DejaVuSans-2e" x="127.246094"/>
       <use xlink:href="#DejaVuSans-30" x="159.033203"/>
       <use xlink:href="#DejaVuSans-30" x="222.65625"/>
      </g>
     </g>
    </g>
    <g id="ytick_2">
     <g id="line2d_9">
      <g>
       <use xlink:href="#mf54f059253" x="54" y="187.451757" style="stroke: #000000; stroke-width: 0.8"/>
      </g>
     </g>
     <g id="text_10">
      <!-- 30.05 -->
      <g transform="translate(18.371875 191.250976) scale(0.1 -0.1)">
       <defs>
        <path id="DejaVuSans-35" d="M 691 4666 
L 3169 4666 
L 3169 4134 
L 1269 4134 
L 1269 2991 
Q 1406 3038 1543 3061 
Q 1681 3084 1819 3084 
Q 2600 3084 3056 2656 
Q 3513 2228 3513 1497 
Q 3513 744 3044 326 
Q 2575 -91 1722 -91 
Q 1428 -91 1123 -41 
Q 819 9 494 109 
L 494 744 
Q 775 591 1075 516 
Q 1375 441 1709 441 
Q 2250 441 2565 725 
Q 2881 1009 2881 1497 
Q 2881 1984 2565 2268 
Q 2250 2553 1709 2553 
Q 1456 2553 1204 2497 
Q 953 2441 691 2322 
L 691 4666 
z
" transform="scale(0.015625)"/>
       </defs>
       <use xlink:href="#DejaVuSans-33"/>
       <use xlink:href="#DejaVuSans-30" x="63.623047"/>
       <use xlink:href="#DejaVuSans-2e" x="127.246094"/>
       <use xlink:href="#DejaVuSans-30" x="159.033203"/>
       <use xlink:href="#DejaVuSans-35" x="222.65625"/>
      </g>
     </g>
    </g>
    <g id="ytick_3">
     <g id="line2d_10">
      <g>
       <use xlink:href="#mf54f059253" x="54" y="154.92601" style="stroke: #000000; stroke-width: 0.8"/>
      </g>
     </g>
     <g id="text_11">
      <!-- 30.10 -->
      <g transform="translate(18.371875 158.725229) scale(0.1 -0.1)">
       <use xlink:href="#DejaVuSans-33"/>
       <use xlink:href="#DejaVuSans-30" x="63.623047"/>
       <use xlink:href="#DejaVuSans-2e" x="127.246094"/>
       <use xlink:href="#DejaVuSans-31" x="159.033203"/>
       <use xlink:href="#DejaVuSans-30" x="222.65625"/>
      </g>
     </g>
    </g>
    <g id="ytick_4">
     <g id="line2d_11">
      <g>
       <use xlink:href="#mf54f059253" x="54" y="122.400263" style="stroke: #000000; stroke-width: 0.8"/>
      </g>
     </g>
     <g id="text_12">
      <!-- 30.15 -->
      <g transform="translate(18.371875 126.199482) scale(0.1 -0.1)">
       <use xlink:href="#DejaVuSans-33"/>
       <use xlink:href="#DejaVuSans-30" x="63.623047"/>
       <use xlink:href="#DejaVuSans-2e" x="127.246094"/>
       <use xlink:href="#DejaVuSans-31" x="159.033203"/>
       <use xlink:href="#DejaVuSans-35" x="222.65625"/>
      </g>
     </g>
    </g>
    <g id="ytick_5">
     <g id="line2d_12">
      <g>
       <use xlink:href="#mf54f059253" x="54" y="89.874516" style="stroke: #000000; stroke-width: 0.8"/>
      </g>
     </g>
     <g id="text_13">
      <!-- 30.20 -->
      <g transform="translate(18.371875 93.673734) scale(0.1 -0.1)">
       <use xlink:href="#DejaVuSans-33"/>
       <use xlink:href="#DejaVuSans-30" x="63.623047"/>
       <use xlink:href="#DejaVuSans-2e" x="127.246094"/>
       <use xlink:href="#DejaVuSans-32" x="159.033203"/>
       <use xlink:href="#DejaVuSans-30" x="222.65625"/>
      </g>
     </g>
    </g>
    <g id="ytick_6">
     <g id="line2d_13">
      <g>
       <use xlink:href="#mf54f059253" x="54" y="57.348769" style="stroke: #000000; stroke-width: 0.8"/>
      </g>
     </g>
     <g id="text_14">
      <!-- 30.25 -->
      <g transform="translate(18.371875 61.147987) scale(0.1 -0.1)">
       <use xlink:href="#DejaVuSans-33"/>
       <use xlink:href="#DejaVuSans-30" x="63.623047"/>
       <use xlink:href="#DejaVuSans-2e" x="127.246094"/>
       <use xlink:href="#DejaVuSans-32" x="159.033203"/>
       <use xlink:href="#DejaVuSans-35" x="222.65625"/>
      </g>
     </g>
    </g>
    <g id="text_15">
     <!-- Average Temperature (°C) -->
     <g transform="translate(11.460312 234.662813) rotate(-90) scale(0.14 -0.14)">
      <defs>
       <path id="DejaVuSans-41" d="M 2188 4044 
L 1331 1722 
L 3047 1722 
L 2188 4044 
z
M 1831 4666 
L 2547 4666 
L 4325 0 
L 3669 0 
L 3244 1197 
L 1141 1197 
L 716 0 
L 50 0 
L 1831 4666 
z
" transform="scale(0.015625)"/>
       <path id="DejaVuSans-76" d="M 191 3500 
L 800 3500 
L 1894 563 
L 2988 3500 
L 3597 3500 
L 2284 0 
L 1503 0 
L 191 3500 
z
" transform="scale(0.015625)"/>
       <path id="DejaVuSans-72" d="M 2631 2963 
Q 2534 3019 2420 3045 
Q 2306 3072 2169 3072 
Q 1681 3072 1420 2755 
Q 1159 2438 1159 1844 
L 1159 0 
L 581 0 
L 581 3500 
L 1159 3500 
L 1159 2956 
Q 1341 3275 1631 3429 
Q 1922 3584 2338 3584 
Q 2397 3584 2469 3576 
Q 2541 3569 2628 3553 
L 2631 2963 
z
" transform="scale(0.015625)"/>
       <path id="DejaVuSans-61" d="M 2194 1759 
Q 1497 1759 1228 1600 
Q 959 1441 959 1056 
Q 959 750 1161 570 
Q 1363 391 1709 391 
Q 2188 391 2477 730 
Q 2766 1069 2766 1631 
L 2766 1759 
L 2194 1759 
z
M 3341 1997 
L 3341 0 
L 2766 0 
L 2766 531 
Q 2569 213 2275 61 
Q 1981 -91 1556 -91 
Q 1019 -91 701 211 
Q 384 513 384 1019 
Q 384 1609 779 1909 
Q 1175 2209 1959 2209 
L 2766 2209 
L 2766 2266 
Q 2766 2663 2505 2880 
Q 2244 3097 1772 3097 
Q 1472 3097 1187 3025 
Q 903 2953 641 2809 
L 641 3341 
Q 956 3463 1253 3523 
Q 1550 3584 1831 3584 
Q 2591 3584 2966 3190 
Q 3341 2797 3341 1997 
z
" transform="scale(0.015625)"/>
       <path id="DejaVuSans-67" d="M 2906 1791 
Q 2906 2416 2648 2759 
Q 2391 3103 1925 3103 
Q 1463 3103 1205 2759 
Q 947 2416 947 1791 
Q 947 1169 1205 825 
Q 1463 481 1925 481 
Q 2391 481 2648 825 
Q 2906 1169 2906 1791 
z
M 3481 434 
Q 3481 -459 3084 -895 
Q 2688 -1331 1869 -1331 
Q 1566 -1331 1297 -1286 
Q 1028 -1241 775 -1147 
L 775 -588 
Q 1028 -725 1275 -790 
Q 1522 -856 1778 -856 
Q 2344 -856 2625 -561 
Q 2906 -266 2906 331 
L 2906 616 
Q 2728 306 2450 153 
Q 2172 0 1784 0 
Q 1141 0 747 490 
Q 353 981 353 1791 
Q 353 2603 747 3093 
Q 1141 3584 1784 3584 
Q 2172 3584 2450 3431 
Q 2728 3278 2906 2969 
L 2906 3500 
L 3481 3500 
L 3481 434 
z
" transform="scale(0.015625)"/>
       <path id="DejaVuSans-70" d="M 1159 525 
L 1159 -1331 
L 581 -1331 
L 581 3500 
L 1159 3500 
L 1159 2969 
Q 1341 3281 1617 3432 
Q 1894 3584 2278 3584 
Q 2916 3584 3314 3078 
Q 3713 2572 3713 1747 
Q 3713 922 3314 415 
Q 2916 -91 2278 -91 
Q 1894 -91 1617 61 
Q 1341 213 1159 525 
z
M 3116 1747 
Q 3116 2381 2855 2742 
Q 2594 3103 2138 3103 
Q 1681 3103 1420 2742 
Q 1159 2381 1159 1747 
Q 1159 1113 1420 752 
Q 1681 391 2138 391 
Q 2594 391 2855 752 
Q 3116 1113 3116 1747 
z
" transform="scale(0.015625)"/>
       <path id="DejaVuSans-74" d="M 1172 4494 
L 1172 3500 
L 2356 3500 
L 2356 3053 
L 1172 3053 
L 1172 1153 
Q 1172 725 1289 603 
Q 1406 481 1766 481 
L 2356 481 
L 2356 0 
L 1766 0 
Q 1100 0 847 248 
Q 594 497 594 1153 
L 594 3053 
L 172 3053 
L 172 3500 
L 594 3500 
L 594 4494 
L 1172 4494 
z
" transform="scale(0.015625)"/>
       <path id="DejaVuSans-75" d="M 544 1381 
L 544 3500 
L 1119 3500 
L 1119 1403 
Q 1119 906 1312 657 
Q 1506 409 1894 409 
Q 2359 409 2629 706 
Q 2900 1003 2900 1516 
L 2900 3500 
L 3475 3500 
L 3475 0 
L 2900 0 
L 2900 538 
Q 2691 219 2414 64 
Q 2138 -91 1772 -91 
Q 1169 -91 856 284 
Q 544 659 544 1381 
z
M 1991 3584 
L 1991 3584 
z
" transform="scale(0.015625)"/>
       <path id="DejaVuSans-b0" d="M 1600 4347 
Q 1350 4347 1178 4173 
Q 1006 4000 1006 3750 
Q 1006 3503 1178 3333 
Q 1350 3163 1600 3163 
Q 1850 3163 2022 3333 
Q 2194 3503 2194 3750 
Q 2194 3997 2020 4172 
Q 1847 4347 1600 4347 
z
M 1600 4750 
Q 1800 4750 1984 4673 
Q 2169 4597 2303 4453 
Q 2447 4313 2519 4134 
Q 2591 3956 2591 3750 
Q 2591 3338 2302 3052 
Q 2013 2766 1594 2766 
Q 1172 2766 890 3047 
Q 609 3328 609 3750 
Q 609 4169 896 4459 
Q 1184 4750 1600 4750 
z
" transform="scale(0.015625)"/>
       <path id="DejaVuSans-43" d="M 4122 4306 
L 4122 3641 
Q 3803 3938 3442 4084 
Q 3081 4231 2675 4231 
Q 1875 4231 1450 3742 
Q 1025 3253 1025 2328 
Q 1025 1406 1450 917 
Q 1875 428 2675 428 
Q 3081 428 3442 575 
Q 3803 722 4122 1019 
L 4122 359 
Q 3791 134 3420 21 
Q 3050 -91 2638 -91 
Q 1578 -91 968 557 
Q 359 1206 359 2328 
Q 359 3453 968 4101 
Q 1578 4750 2638 4750 
Q 3056 4750 3426 4639 
Q 3797 4528 4122 4306 
z
" transform="scale(0.015625)"/>
      </defs>
      <use xlink:href="#DejaVuSans-41"/>
      <use xlink:href="#DejaVuSans-76" x="62.533203"/>
      <use xlink:href="#DejaVuSans-65" x="121.712891"/>
      <use xlink:href="#DejaVuSans-72" x="183.236328"/>
      <use xlink:href="#DejaVuSans-61" x="224.349609"/>
      <use xlink:href="#DejaVuSans-67" x="285.628906"/>
      <use xlink:href="#DejaVuSans-65" x="349.105469"/>
      <use xlink:href="#DejaVuSans-20" x="410.628906"/>
      <use xlink:href="#DejaVuSans-54" x="442.416016"/>
      <use xlink:href="#DejaVuSans-65" x="486.5"/>
      <use xlink:href="#DejaVuSans-6d" x="548.023438"/>
      <use xlink:href="#DejaVuSans-70" x="645.435547"/>
      <use xlink:href="#DejaVuSans-65" x="708.912109"/>
      <use xlink:href="#DejaVuSans-72" x="770.435547"/>
      <use xlink:href="#DejaVuSans-61" x="811.548828"/>
      <use xlink:href="#DejaVuSans-74" x="872.828125"/>
      <use xlink:href="#DejaVuSans-75" x="912.037109"/>
      <use xlink:href="#DejaVuSans-72" x="975.416016"/>
      <use xlink:href="#DejaVuSans-65" x="1014.279297"/>
      <use xlink:href="#DejaVuSans-20" x="1075.802734"/>
      <use xlink:href="#DejaVuSans-28" x="1107.589844"/>
      <use xlink:href="#DejaVuSans-b0" x="1146.603516"/>
      <use xlink:href="#DejaVuSans-43" x="1196.603516"/>
      <use xlink:href="#DejaVuSans-29" x="1266.427734"/>
     </g>
    </g>
   </g>
   <g id="line2d_14">
    <path d="M 69.218182 123.203282 
L 71.672727 120.890508 
L 74.127273 118.198061 
L 76.581818 117.925094 
L 79.036364 117.786129 
L 81.490909 118.704291 
L 83.945455 118.540511 
L 86.4 116.993284 
L 88.854545 117.042915 
L 91.309091 115.444817 
L 93.763636 114.303319 
L 96.218182 113.144451 
L 98.672727 114.686714 
L 101.127273 117.191806 
L 103.581818 117.674461 
L 106.036364 118.830848 
L 108.490909 121.235439 
L 110.945455 120.400408 
L 113.4 119.920234 
L 115.854545 119.380504 
L 118.309091 119.319707 
L 120.763636 119.278762 
L 123.218182 118.683198 
L 125.672727 120.082774 
L 128.127273 122.204471 
L 130.581818 122.100247 
L 133.036364 120.479816 
L 135.490909 119.060388 
L 137.945455 119.267595 
L 140.4 120.246554 
L 142.854545 123.646233 
L 145.309091 126.877169 
L 147.763636 129.82273 
L 150.218182 132.508973 
L 152.672727 134.181516 
L 155.127273 136.914907 
L 157.581818 141.832034 
L 160.036364 146.683401 
L 162.490909 152.673785 
L 164.945455 157.692654 
L 167.4 161.20152 
L 169.854545 163.406348 
L 172.309091 163.991986 
L 174.763636 165.222819 
L 177.218182 165.63351 
L 179.672727 165.054076 
L 182.127273 165.743938 
L 184.581818 165.565269 
L 187.036364 166.866825 
L 189.490909 165.716641 
L 191.945455 162.944786 
L 194.4 157.551208 
L 196.854545 154.774389 
L 199.309091 152.055887 
L 201.763636 149.622759 
L 204.218182 145.266455 
L 206.672727 139.531668 
L 209.127273 133.924679 
L 211.581818 130.279329 
L 214.036364 127.094302 
L 216.490909 125.256738 
L 218.945455 122.144915 
L 221.4 118.782458 
L 223.854545 116.465962 
L 226.309091 114.48447 
L 228.763636 113.587401 
L 231.218182 112.908706 
L 233.672727 112.397514 
L 236.127273 114.690436 
L 238.581818 117.366753 
L 241.036364 119.611285 
L 243.490909 121.198216 
L 245.945455 120.251517 
L 248.4 118.760125 
L 250.854545 117.650886 
L 253.309091 117.310919 
L 255.763636 116.125994 
L 258.218182 116.33196 
L 260.672727 115.393946 
L 263.127273 115.006829 
L 265.581818 115.343075 
L 268.036364 114.037797 
L 270.490909 111.728745 
L 272.945455 110.316761 
L 275.4 109.968108 
L 277.854545 111.272146 
L 280.309091 114.583731 
L 282.763636 118.750199 
L 285.218182 121.396737 
L 287.672727 123.11767 
L 290.127273 125.089235 
L 292.581818 127.619143 
L 295.036364 133.254669 
L 297.490909 136.697775 
L 299.945455 138.722693 
L 302.4 142.176965 
L 304.854545 144.696947 
L 307.309091 146.331026 
L 309.763636 147.673527 
L 312.218182 148.674819 
L 314.672727 149.328699 
L 317.127273 151.450397 
L 319.581818 155.795534 
L 322.036364 158.623223 
L 324.490909 160.945924 
L 326.945455 159.800703 
L 329.4 158.275811 
L 331.854545 158.687743 
L 334.309091 159.153027 
L 336.763636 160.23621 
L 339.218182 161.177946 
L 341.672727 161.70899 
L 344.127273 159.986817 
L 346.581818 157.641783 
L 349.036364 154.992763 
L 351.490909 152.94427 
L 353.945455 151.579436 
L 356.4 148.780284 
L 358.854545 145.723054 
L 361.309091 141.669495 
L 363.763636 140.661999 
L 366.218182 139.442333 
L 368.672727 139.216515 
L 371.127273 139.021716 
L 373.581818 139.607354 
" clip-path="url(#p08f4ed5b92)" style="fill: none; stroke: #1f77b4; stroke-width: 1.5; stroke-linecap: square"/>
   </g>
   <g id="line2d_15">
    <path d="M 142.854545 252 
L 142.854545 34.56 
" clip-path="url(#p08f4ed5b92)" style="fill: none; stroke-dasharray: 5.55,2.4; stroke-dashoffset: 0; stroke: #ff0000; stroke-opacity: 0.5; stroke-width: 1.5"/>
   </g>
   <g id="line2d_16">
    <path d="M 194.4 252 
L 194.4 34.56 
" clip-path="url(#p08f4ed5b92)" style="fill: none; stroke-dasharray: 5.55,2.4; stroke-dashoffset: 0; stroke: #ff0000; stroke-opacity: 0.5; stroke-width: 1.5"/>
   </g>
   <g id="patch_4">
    <path d="M 54 252 
L 54 34.56 
" style="fill: none; stroke: #000000; stroke-width: 0.8; stroke-linejoin: miter; stroke-linecap: square"/>
   </g>
   <g id="patch_5">
    <path d="M 388.8 252 
L 388.8 34.56 
" style="fill: none; stroke: #000000; stroke-width: 0.8; stroke-linejoin: miter; stroke-linecap: square"/>
   </g>
   <g id="patch_6">
    <path d="M 54 252 
L 388.8 252 
" style="fill: none; stroke: #000000; stroke-width: 0.8; stroke-linejoin: miter; stroke-linecap: square"/>
   </g>
   <g id="patch_7">
    <path d="M 54 34.56 
L 388.8 34.56 
" style="fill: none; stroke: #000000; stroke-width: 0.8; stroke-linejoin: miter; stroke-linecap: square"/>
   </g>
   <g id="text_16">
    <!-- Average Temperature over Time at Box for Laser Activation -->
    <g transform="translate(-15.57625 28.56) scale(0.16 -0.16)">
     <defs>
      <path id="DejaVuSans-42" d="M 1259 2228 
L 1259 519 
L 2272 519 
Q 2781 519 3026 730 
Q 3272 941 3272 1375 
Q 3272 1813 3026 2020 
Q 2781 2228 2272 2228 
L 1259 2228 
z
M 1259 4147 
L 1259 2741 
L 2194 2741 
Q 2656 2741 2882 2914 
Q 3109 3088 3109 3444 
Q 3109 3797 2882 3972 
Q 2656 4147 2194 4147 
L 1259 4147 
z
M 628 4666 
L 2241 4666 
Q 2963 4666 3353 4366 
Q 3744 4066 3744 3513 
Q 3744 3084 3544 2831 
Q 3344 2578 2956 2516 
Q 3422 2416 3680 2098 
Q 3938 1781 3938 1306 
Q 3938 681 3513 340 
Q 3088 0 2303 0 
L 628 0 
L 628 4666 
z
" transform="scale(0.015625)"/>
      <path id="DejaVuSans-78" d="M 3513 3500 
L 2247 1797 
L 3578 0 
L 2900 0 
L 1881 1375 
L 863 0 
L 184 0 
L 1544 1831 
L 300 3500 
L 978 3500 
L 1906 2253 
L 2834 3500 
L 3513 3500 
z
" transform="scale(0.015625)"/>
      <path id="DejaVuSans-66" d="M 2375 4863 
L 2375 4384 
L 1825 4384 
Q 1516 4384 1395 4259 
Q 1275 4134 1275 3809 
L 1275 3500 
L 2222 3500 
L 2222 3053 
L 1275 3053 
L 1275 0 
L 697 0 
L 697 3053 
L 147 3053 
L 147 3500 
L 697 3500 
L 697 3744 
Q 697 4328 969 4595 
Q 1241 4863 1831 4863 
L 2375 4863 
z
" transform="scale(0.015625)"/>
      <path id="DejaVuSans-4c" d="M 628 4666 
L 1259 4666 
L 1259 531 
L 3531 531 
L 3531 0 
L 628 0 
L 628 4666 
z
" transform="scale(0.015625)"/>
     </defs>
     <use xlink:href="#DejaVuSans-41"/>
     <use xlink:href="#DejaVuSans-76" x="62.533203"/>
     <use xlink:href="#DejaVuSans-65" x="121.712891"/>
     <use xlink:href="#DejaVuSans-72" x="183.236328"/>
     <use xlink:href="#DejaVuSans-61" x="224.349609"/>
     <use xlink:href="#DejaVuSans-67" x="285.628906"/>
     <use xlink:href="#DejaVuSans-65" x="349.105469"/>
     <use xlink:href="#DejaVuSans-20" x="410.628906"/>
     <use xlink:href="#DejaVuSans-54" x="442.416016"/>
     <use xlink:href="#DejaVuSans-65" x="486.5"/>
     <use xlink:href="#DejaVuSans-6d" x="548.023438"/>
     <use xlink:href="#DejaVuSans-70" x="645.435547"/>
     <use xlink:href="#DejaVuSans-65" x="708.912109"/>
     <use xlink:href="#DejaVuSans-72" x="770.435547"/>
     <use xlink:href="#DejaVuSans-61" x="811.548828"/>
     <use xlink:href="#DejaVuSans-74" x="872.828125"/>
     <use xlink:href="#DejaVuSans-75" x="912.037109"/>
     <use xlink:href="#DejaVuSans-72" x="975.416016"/>
     <use xlink:href="#DejaVuSans-65" x="1014.279297"/>
     <use xlink:href="#DejaVuSans-20" x="1075.802734"/>
     <use xlink:href="#DejaVuSans-6f" x="1107.589844"/>
     <use xlink:href="#DejaVuSans-76" x="1168.771484"/>
     <use xlink:href="#DejaVuSans-65" x="1227.951172"/>
     <use xlink:href="#DejaVuSans-72" x="1289.474609"/>
     <use xlink:href="#DejaVuSans-20" x="1330.587891"/>
     <use xlink:href="#DejaVuSans-54" x="1362.375"/>
     <use xlink:href="#DejaVuSans-69" x="1420.333984"/>
     <use xlink:href="#DejaVuSans-6d" x="1448.117188"/>
     <use xlink:href="#DejaVuSans-65" x="1545.529297"/>
     <use xlink:href="#DejaVuSans-20" x="1607.052734"/>
     <use xlink:href="#DejaVuSans-61" x="1638.839844"/>
     <use xlink:href="#DejaVuSans-74" x="1700.119141"/>
     <use xlink:href="#DejaVuSans-20" x="1739.328125"/>
     <use xlink:href="#DejaVuSans-42" x="1771.115234"/>
     <use xlink:href="#DejaVuSans-6f" x="1839.71875"/>
     <use xlink:href="#DejaVuSans-78" x="1897.775391"/>
     <use xlink:href="#DejaVuSans-20" x="1956.955078"/>
     <use xlink:href="#DejaVuSans-66" x="1988.742188"/>
     <use xlink:href="#DejaVuSans-6f" x="2023.947266"/>
     <use xlink:href="#DejaVuSans-72" x="2085.128906"/>
     <use xlink:href="#DejaVuSans-20" x="2126.242188"/>
     <use xlink:href="#DejaVuSans-4c" x="2158.029297"/>
     <use xlink:href="#DejaVuSans-61" x="2213.742188"/>
     <use xlink:href="#DejaVuSans-73" x="2275.021484"/>
     <use xlink:href="#DejaVuSans-65" x="2327.121094"/>
     <use xlink:href="#DejaVuSans-72" x="2388.644531"/>
     <use xlink:href="#DejaVuSans-20" x="2429.757812"/>
     <use xlink:href="#DejaVuSans-41" x="2461.544922"/>
     <use xlink:href="#DejaVuSans-63" x="2528.203125"/>
     <use xlink:href="#DejaVuSans-74" x="2583.183594"/>
     <use xlink:href="#DejaVuSans-69" x="2622.392578"/>
     <use xlink:href="#DejaVuSans-76" x="2650.175781"/>
     <use xlink:href="#DejaVuSans-61" x="2709.355469"/>
     <use xlink:href="#DejaVuSans-74" x="2770.634766"/>
     <use xlink:href="#DejaVuSans-69" x="2809.84375"/>
     <use xlink:href="#DejaVuSans-6f" x="2837.626953"/>
     <use xlink:href="#DejaVuSans-6e" x="2898.808594"/>
    </g>
   </g>
  </g>
 </g>
 <defs>
  <clipPath id="p08f4ed5b92">
   <rect x="54" y="34.56" width="334.8" height="217.44"/>
  </clipPath>
 </defs>
</svg>
